<!-- Generated by IcoMoon.io -->
<svg version="1.1" xmlns="http://www.w3.org/2000/svg" width="34" height="32" viewBox="0 0 34 32">
<title>vnator-icon</title>
<path fill="#fff" d="M20.289 15.529c0.011-1.435 0.004-15.064 0.004-15.064-0-0.466-0-0.466 0.518-0.465l5.338 0c0.518-0.002 0.518-0.002 0.519 0.46 0 0-0.001 13.633-0.001 15.064-0.004 0.61-0.004 0.61-0.357 1.271l-2.322 4.223c-0.204 0.341-0.204 0.341-0.416 0.35h-0.199c-0.209-0.009-0.209-0.009-0.416-0.349l-2.307-4.225c-0.358-0.66-0.363-0.659-0.362-1.267z"></path>
<path fill="#fff" d="M13.659 26.159c0.011-1.435 0.004-25.669 0.004-25.669-0-0.466-0-0.469 0.518-0.467l5.339 0c0.518-0.002 0.518 0 0.519 0.463 0 0-0.001 24.238-0.001 25.669-0.004 0.61-0.004 0.61-0.357 1.271l-2.322 4.223c-0.204 0.341-0.204 0.341-0.416 0.35h-0.199c-0.209-0.009-0.209-0.009-0.416-0.349l-2.307-4.225c-0.358-0.66-0.363-0.659-0.362-1.267z"></path>
<path fill="#fff" d="M6.996 15.434c0.011-1.435 0.004-14.946 0.004-14.946-0-0.466-0-0.466 0.518-0.465l5.339 0c0.518-0.002 0.518-0.002 0.519 0.46 0 0-0.001 13.515-0.001 14.946-0.004 0.61-0.004 0.61-0.357 1.271l-2.322 4.223c-0.204 0.341-0.204 0.341-0.416 0.35h-0.199c-0.209-0.009-0.209-0.009-0.416-0.349l-2.307-4.225c-0.358-0.66-0.363-0.659-0.362-1.267z"></path>
<path fill="#fff" d="M26.873 4.791c0.011-1.435 0.004-4.303 0.004-4.303-0-0.466-0-0.466 0.518-0.465l5.339 0c0.518-0.002 0.518-0.002 0.519 0.46 0 0-0.001 2.872-0.001 4.303-0.004 0.61-0.004 0.61-0.357 1.271l-2.322 4.223c-0.204 0.341-0.204 0.341-0.416 0.35h-0.199c-0.209-0.009-0.209-0.009-0.416-0.349l-2.307-4.225c-0.358-0.66-0.363-0.659-0.362-1.267z"></path>
<path fill="#fff" d="M0.372 4.791c0.011-1.435 0.004-4.303 0.004-4.303-0-0.466-0-0.466 0.518-0.465l5.339 0c0.518-0.002 0.518-0.002 0.519 0.46 0 0-0.001 2.872-0.001 4.303-0.004 0.61-0.004 0.61-0.357 1.271l-2.322 4.223c-0.204 0.341-0.204 0.341-0.416 0.35h-0.199c-0.209-0.009-0.209-0.009-0.416-0.349l-2.307-4.225c-0.358-0.66-0.363-0.659-0.362-1.267z"></path>
</svg>
